<svg width="30" height="30" viewBox="0 0 30 30" fill="none" xmlns="http://www.w3.org/2000/svg">
<rect width="30" height="30" fill="white"/>
<path d="M6.49489 17.9138L6.29764 18.3102L5.64337 19.6253L7.83953 18.6784L8.02 18.6005L8.20515 18.6664C8.70734 18.8452 9.22298 18.9984 9.75726 19.1106C9.71988 18.8184 9.70002 18.5199 9.69999 18.2132M6.49489 17.9138L10.2 18.2125M6.49489 17.9138L6.12518 17.67C3.99889 16.2684 2.67499 14.1498 2.67499 11.7875C2.67499 7.7068 6.67539 4.25 11.8 4.25C16.0049 4.25 19.4663 6.59861 20.5522 9.70156M6.49489 17.9138L21.2375 10.275C21.1972 10.0989 21.15 9.92492 21.0962 9.75312C20.9171 9.73196 20.7358 9.71454 20.5522 9.70156M9.69999 18.2132C9.69999 18.213 9.69999 18.2127 9.69999 18.2125H10.2M9.69999 18.2132C9.69999 18.2134 9.69999 18.2137 9.69999 18.2139L10.2 18.2125M9.69999 18.2132C9.68693 13.4307 14.3124 9.675 19.8125 9.675C20.0628 9.675 20.3094 9.68439 20.5522 9.70156M10.2 18.2125C10.1875 13.7875 14.5 10.175 19.8125 10.175C20.116 10.175 20.4146 10.1895 20.7084 10.2156C20.6636 10.0422 20.6115 9.87075 20.5522 9.70156M10.375 19.725C10.3354 19.5535 10.302 19.3804 10.2754 19.2053L9.84456 19.6381C10.0191 19.6714 10.1959 19.7006 10.375 19.725ZM15.6506 6.9919C15.4443 6.90647 15.2232 6.8625 15 6.8625C14.5491 6.8625 14.1167 7.04161 13.7979 7.36042C13.4791 7.67923 13.3 8.11163 13.3 8.5625C13.3 9.01337 13.4791 9.44577 13.7979 9.76458C14.1167 10.0834 14.5491 10.2625 15 10.2625C15.2232 10.2625 15.4443 10.2185 15.6506 10.1331C15.8568 10.0477 16.0442 9.92244 16.2021 9.76458C16.3599 9.60672 16.4852 9.41932 16.5706 9.21306C16.656 9.00681 16.7 8.78575 16.7 8.5625C16.7 8.33925 16.656 8.11819 16.5706 7.91194C16.4852 7.70568 16.3599 7.51828 16.2021 7.36042C16.0442 7.20256 15.8568 7.07734 15.6506 6.9919ZM7.38541 9.77708C7.70422 10.0959 8.13662 10.275 8.58749 10.275C9.03836 10.275 9.47076 10.0959 9.78957 9.77708C10.1084 9.45827 10.2875 9.02587 10.2875 8.575C10.2875 8.12413 10.1084 7.69173 9.78957 7.37292C9.47076 7.05411 9.03836 6.875 8.58749 6.875C8.13662 6.875 7.70422 7.05411 7.38541 7.37292C7.06659 7.69173 6.88749 8.12413 6.88749 8.575C6.88749 9.02587 7.06659 9.45827 7.38541 9.77708Z" fill="#9D9D9D" stroke="#9D9D9D"/>
<path d="M22.0977 23.9283L21.9483 23.8639L21.7896 23.8998C21.1539 24.0438 20.4918 24.1375 19.8125 24.1375C15.5548 24.1375 12.3 21.3889 12.3 18.2125C12.3 15.0361 15.5548 12.2875 19.8125 12.2875C24.0701 12.2875 27.325 15.0361 27.325 18.2125C27.325 20.0606 26.2283 21.7178 24.4595 22.8263L24.0747 23.0674L24.2778 23.4736L25.1657 25.2494L22.0977 23.9283ZM16.4555 18.026C16.7351 18.2128 17.0638 18.3125 17.4 18.3125C18.3283 18.3125 19.1153 17.5601 19.1 16.6078C19.0991 16.2732 18.9994 15.9463 18.8135 15.668C18.6267 15.3885 18.3612 15.1706 18.0506 15.0419C17.7399 14.9132 17.3981 14.8796 17.0683 14.9452C16.7386 15.0108 16.4357 15.1727 16.1979 15.4104C15.9602 15.6482 15.7982 15.9511 15.7327 16.2808C15.6671 16.6106 15.7007 16.9524 15.8294 17.2631C15.9581 17.5737 16.176 17.8392 16.4555 18.026ZM21.0104 17.8146C21.3292 18.1334 21.7616 18.3125 22.2125 18.3125C22.6634 18.3125 23.0958 18.1334 23.4146 17.8146C23.7334 17.4958 23.9125 17.0634 23.9125 16.6125C23.9125 16.1616 23.7334 15.7292 23.4146 15.4104C23.0958 15.0916 22.6634 14.9125 22.2125 14.9125C21.7616 14.9125 21.3292 15.0916 21.0104 15.4104C20.6916 15.7292 20.5125 16.1616 20.5125 16.6125C20.5125 17.0634 20.6916 17.4958 21.0104 17.8146Z" stroke="#9D9D9D"/>
</svg>
