<svg width="20" height="18" viewBox="0 0 20 18" fill="none" xmlns="http://www.w3.org/2000/svg">
<g clip-path="url(#clip0_6_151)">
<path d="M16.9238 0H2.41769C1.08418 0 0 1.00898 0 2.25V12.375C0 13.616 1.08418 14.625 2.41769 14.625H6.04422V17.5781C6.04422 17.8277 6.26332 18 6.49754 18C6.5882 18 6.68264 17.9754 6.76575 17.9156L11.484 14.625H16.9238C18.2573 14.625 19.3415 13.616 19.3415 12.375V2.25C19.3415 1.00898 18.2573 0 16.9238 0ZM17.5282 12.375C17.5282 12.6844 17.2562 12.9375 16.9238 12.9375H10.8796L10.3961 13.275L7.85749 15.0469V12.9375H2.41769C2.08526 12.9375 1.81327 12.6844 1.81327 12.375V2.25C1.81327 1.94062 2.08526 1.6875 2.41769 1.6875H16.9238C17.2562 1.6875 17.5282 1.94062 17.5282 2.25V12.375Z" fill="#696969"/>
</g>
<defs>
<clipPath id="clip0_6_151">
<rect width="19.3415" height="18" fill="white"/>
</clipPath>
</defs>
</svg>
