<svg width="21" height="20" viewBox="0 0 21 20" fill="none" xmlns="http://www.w3.org/2000/svg">
<path d="M16.3771 6.06853L14.0938 3.7852C13.7958 3.50528 13.4053 3.34466 12.9966 3.33391C12.5878 3.32315 12.1894 3.463 11.8771 3.72686L4.37712 11.2269C4.10776 11.4985 3.94004 11.8545 3.90212 12.2352L3.54379 15.7102C3.53256 15.8323 3.5484 15.9553 3.59017 16.0705C3.63194 16.1858 3.69862 16.2904 3.78545 16.3769C3.86332 16.4541 3.95567 16.5152 4.0572 16.5567C4.15873 16.5981 4.26745 16.6192 4.37712 16.6185H4.45212L7.92712 16.3019C8.30778 16.2639 8.66381 16.0962 8.93545 15.8269L16.4355 8.32686C16.7265 8.01933 16.8839 7.60895 16.8729 7.18564C16.862 6.76233 16.6837 6.36062 16.3771 6.06853ZM7.77712 14.6352L5.27712 14.8685L5.50212 12.3685L10.2105 7.71853L12.4605 9.96853L7.77712 14.6352ZM13.5438 8.85186L11.3105 6.61853L12.9355 4.95186L15.2105 7.22686L13.5438 8.85186Z" fill="white"/>
</svg>
