<svg width="16" height="16" viewBox="0 0 16 16" fill="none" xmlns="http://www.w3.org/2000/svg">
<path fill-rule="evenodd" clip-rule="evenodd" d="M8 2C6.74422 2 5.62861 2.28035 4.65318 2.84106C4.36017 3.0095 4.34214 3.41187 4.59649 3.63443C4.7756 3.79115 5.03623 3.80582 5.24332 3.68853C6.05381 3.22951 6.9504 3 8 3C11.1317 3 13.7231 5.43169 13.9792 8.50019C14.0022 8.77537 14.2239 9 14.5 9C14.7761 9 15.0018 8.77536 14.9829 8.49987C14.731 4.83828 11.7317 2 8 2ZM1.36324 2.63676C1.16455 2.83545 1.16977 3.15916 1.37477 3.35134L2.6 4.5C1.6986 5.58168 1.12221 6.98838 1.01731 8.50036C0.998195 8.77584 1.22386 9 1.5 9C1.77614 9 1.99781 8.77568 2.01893 8.50035C2.11785 7.21064 2.60148 6.08724 3.4 5.2L5.6 7.2C5.2 7.7 5 8.3 5 9C5 10.7 6.3 12 8 12C8.8 12 9.5 11.7 10 11.2L12.6522 13.6754C12.8462 13.8565 13.1488 13.8512 13.3364 13.6636C13.5346 13.4654 13.5276 13.1419 13.3209 12.9525L2.05107 2.62181C1.85476 2.44186 1.55155 2.44845 1.36324 2.63676ZM6.3 7.9L9.2 10.6C8.9 10.8 8.5 11 8 11C6.9 11 6 10.1 6 9C6 8.6 6.1 8.2 6.3 7.9ZM11 9.5L10 8.6C9.8 7.8 9.1 7.1 8.2 7L7.2 6.1C7.5 6 7.7 6 8 6C9.7 6 11 7.3 11 9V9.5Z" fill="#B6B8B8"/>
</svg>
