<svg width="24" height="24" viewBox="0 0 24 24" fill="none" xmlns="http://www.w3.org/2000/svg">
<path fill-rule="evenodd" clip-rule="evenodd" d="M2.25 15C1.83579 15 1.49727 14.663 1.52569 14.2498C1.90347 8.75742 6.40239 4.5 12 4.5C17.5976 4.5 22.0965 8.75742 22.4743 14.2498C22.5027 14.663 22.1642 15 21.75 15C21.3358 15 21.0033 14.6631 20.9688 14.2503C20.5847 9.64753 16.6976 6 12 6C7.30239 6 3.41534 9.64753 3.03117 14.2503C2.99672 14.6631 2.66421 15 2.25 15ZM7.5 15C7.5 12.45 9.45 10.5 12 10.5C14.55 10.5 16.5 12.45 16.5 15C16.5 17.55 14.55 19.5 12 19.5C9.45 19.5 7.5 17.55 7.5 15ZM9 15C9 16.65 10.35 18 12 18C13.65 18 15 16.65 15 15C15 13.35 13.65 12 12 12C10.35 12 9 13.35 9 15Z" fill="#B6B8B8"/>
</svg>
