<svg width="30" height="30" viewBox="0 0 30 30" fill="none" xmlns="http://www.w3.org/2000/svg">
<path d="M5 8.75V23.75H23.75V26.25H5C2.5 26.25 2.5 23.75 2.5 23.75V8.75H5ZM26.25 6.25V18.75H10V6.25H26.25ZM26.625 3.75H9.625C8.45 3.75 7.5 4.625 7.5 5.6875V19.3125C7.5 20.3875 8.45 21.25 9.625 21.25H26.625C27.8 21.25 28.75 20.3875 28.75 19.3125V5.6875C28.75 4.625 27.8 3.75 26.625 3.75Z" fill="#C82015"/>
<path d="M11.25 7.5H15V13.75H11.25V7.5ZM25 17.5H11.25V15H25V17.5ZM25 10H17.5V7.5H25V10ZM25 13.75H17.5V11.25H25V13.75Z" fill="#C82015"/>
</svg>
