<svg width="18" height="18" viewBox="0 0 18 18" fill="none" xmlns="http://www.w3.org/2000/svg">
<path d="M17.5426 7.36498H9.15762V10.8375H13.9876C13.5376 13.05 11.6551 14.3175 9.15762 14.3175C7.74733 14.3175 6.39481 13.7572 5.39758 12.76C4.40036 11.7628 3.84012 10.4103 3.84012 8.99998C3.84012 7.58969 4.40036 6.23716 5.39758 5.23994C6.39481 4.24271 7.74733 3.68248 9.15762 3.68248C10.3661 3.68418 11.5369 4.10272 12.4726 4.86748L15.0901 2.24998C13.9973 1.28622 12.6869 0.602199 11.2713 0.25669C9.85583 -0.0888192 8.3776 -0.085485 6.96366 0.266406C5.54972 0.618297 4.24235 1.30822 3.15391 2.2769C2.06546 3.24558 1.22847 4.46404 0.714871 5.82759C0.201267 7.19113 0.0264039 8.65899 0.205306 10.105C0.384209 11.5511 0.911527 12.9321 1.74195 14.1293C2.57237 15.3266 3.68107 16.3044 4.97277 16.9786C6.26447 17.6528 7.70056 18.0033 9.15762 18C13.6576 18 17.7451 14.73 17.7451 8.99998C17.7407 8.44901 17.6727 7.90039 17.5426 7.36498Z" fill="#EA4335"/>
</svg>
