<svg width="32" height="32" viewBox="0 0 32 32" fill="none" xmlns="http://www.w3.org/2000/svg">
<path d="M16 16C14.5334 16 13.3334 14.8 13.3334 13.3333C13.3334 11.8667 14.5334 10.6667 16 10.6667C17.4667 10.6667 18.6667 11.8667 18.6667 13.3333C18.6667 14.8 17.4667 16 16 16ZM24 13.6C24 8.76 20.4667 5.33334 16 5.33334C11.5334 5.33334 8.00004 8.76 8.00004 13.6C8.00004 16.72 10.6 20.8533 16 25.7867C21.4 20.8533 24 16.72 24 13.6ZM16 2.66667C21.6 2.66667 26.6667 6.96 26.6667 13.6C26.6667 18.0267 23.1067 23.2667 16 29.3333C8.89337 23.2667 5.33337 18.0267 5.33337 13.6C5.33337 6.96 10.4 2.66667 16 2.66667Z" fill="black"/>
</svg>
