<svg width="30" height="30" viewBox="0 0 30 30" fill="none" xmlns="http://www.w3.org/2000/svg">
<path fill-rule="evenodd" clip-rule="evenodd" d="M13.75 25C13.75 24.6685 13.6183 24.3505 13.3839 24.1161C13.1495 23.8817 12.8315 23.75 12.5 23.75H6.25V6.25H12.5C12.8315 6.25 13.1495 6.1183 13.3839 5.88388C13.6183 5.64946 13.75 5.33152 13.75 5C13.75 4.66848 13.6183 4.35054 13.3839 4.11612C13.1495 3.8817 12.8315 3.75 12.5 3.75H6.25C5.58696 3.75 4.95107 4.01339 4.48223 4.48223C4.01339 4.95107 3.75 5.58696 3.75 6.25V23.75C3.75 24.413 4.01339 25.0489 4.48223 25.5178C4.95107 25.9866 5.58696 26.25 6.25 26.25H12.5C12.8315 26.25 13.1495 26.1183 13.3839 25.8839C13.6183 25.6495 13.75 25.3315 13.75 25Z" fill="#9D9D9D"/>
<path d="M27.1425 15.875C27.3711 15.6426 27.4995 15.3298 27.5 15.0037V14.9962C27.4993 14.666 27.3676 14.3494 27.1338 14.1162L22.1338 9.11623C22.0184 8.99684 21.8805 8.90161 21.728 8.8361C21.5755 8.77059 21.4115 8.73611 21.2455 8.73467C21.0795 8.73322 20.9149 8.76485 20.7613 8.8277C20.6077 8.89055 20.4681 8.98337 20.3508 9.10074C20.2334 9.2181 20.1406 9.35767 20.0777 9.51129C20.0149 9.66491 19.9832 9.82951 19.9847 9.99548C19.9861 10.1615 20.0206 10.3255 20.0861 10.478C20.1516 10.6305 20.2469 10.7684 20.3662 10.8837L23.2325 13.75H11.25C10.9185 13.75 10.6005 13.8817 10.3661 14.1161C10.1317 14.3505 10 14.6685 10 15C10 15.3315 10.1317 15.6494 10.3661 15.8839C10.6005 16.1183 10.9185 16.25 11.25 16.25H23.2325L20.3662 19.1162C20.1386 19.352 20.0126 19.6677 20.0154 19.9955C20.0183 20.3232 20.1497 20.6367 20.3815 20.8685C20.6132 21.1003 20.9268 21.2317 21.2545 21.2346C21.5822 21.2374 21.898 21.1114 22.1338 20.8837L27.1338 15.8837L27.1425 15.875Z" fill="#9D9D9D"/>
</svg>
