<svg width="12" height="12" viewBox="0 0 12 12" fill="none" xmlns="http://www.w3.org/2000/svg">
<path fill-rule="evenodd" clip-rule="evenodd" d="M6 2.84497C6.20711 2.84497 6.375 3.01286 6.375 3.21997V4.88497C6.375 5.09208 6.20711 5.25997 6 5.25997C5.79289 5.25997 5.625 5.09208 5.625 4.88497V3.21997C5.625 3.01286 5.79289 2.84497 6 2.84497Z" fill="white"/>
<path d="M6.00995 1C4.16995 1 2.67995 2.49 2.67995 4.33V5.38C2.67995 5.72 2.53995 6.23 2.36495 6.52L1.72995 7.58C1.33995 8.235 1.60995 8.965 2.32995 9.205C4.71995 10 7.30495 10 9.69495 9.205C10.3699 8.98 10.6599 8.19 10.2949 7.58L9.65995 6.52C9.48495 6.23 9.34495 5.715 9.34495 5.38V4.33C9.33995 2.5 7.83995 1 6.00995 1Z" stroke="white" stroke-miterlimit="10" stroke-linecap="round"/>
<path fill-rule="evenodd" clip-rule="evenodd" d="M4.70996 9.41003C4.70996 9.76007 4.85646 10.0862 5.09013 10.3199C5.32379 10.5535 5.64992 10.7 5.99996 10.7C6.70785 10.7 7.28996 10.1179 7.28996 9.41003H8.03996C8.03996 10.5321 7.12207 11.45 5.99996 11.45C5.44 11.45 4.92613 11.2165 4.5598 10.8502C4.19346 10.4839 3.95996 9.96999 3.95996 9.41003H4.70996Z" fill="white"/>
</svg>
