<svg width="34" height="34" viewBox="0 0 34 34" fill="none" xmlns="http://www.w3.org/2000/svg">
<path d="M26.3611 19.6452C26.0136 19.6453 25.6695 19.577 25.3484 19.4441C25.0273 19.3112 24.7356 19.1164 24.4898 18.8708C24.244 18.6252 24.049 18.3335 23.9159 18.0125C23.7828 17.6915 23.7143 17.3475 23.7142 17C23.7141 16.6525 23.7824 16.3084 23.9153 15.9873C24.0481 15.6663 24.243 15.3745 24.4886 15.1287C24.7342 14.8829 25.0258 14.6879 25.3468 14.5548C25.6678 14.4218 26.0119 14.3532 26.3594 14.3531C27.0611 14.3529 27.7343 14.6314 28.2307 15.1275C28.7271 15.6236 29.006 16.2965 29.0063 16.9983C29.0065 17.7001 28.7279 18.3732 28.2319 18.8696C27.7358 19.366 27.0628 19.645 26.3611 19.6452Z" fill="#9D9D9D"/>
<path d="M17.2797 19.6452C18.7406 19.6452 19.9249 18.4609 19.9249 17C19.9249 15.5391 18.7406 14.3548 17.2797 14.3548C15.8188 14.3548 14.6345 15.5391 14.6345 17C14.6345 18.4609 15.8188 19.6452 17.2797 19.6452Z" fill="#9D9D9D"/>
<path d="M8.19656 19.6452C9.65746 19.6452 10.8418 18.4609 10.8418 17C10.8418 15.5391 9.65746 14.3548 8.19656 14.3548C6.73566 14.3548 5.55136 15.5391 5.55136 17C5.55136 18.4609 6.73566 19.6452 8.19656 19.6452Z" fill="#9D9D9D"/>
</svg>
