<svg width="42" height="41" viewBox="0 0 42 41" fill="none" xmlns="http://www.w3.org/2000/svg">
<path d="M35.9842 32.9538L30.1759 27.1625C32.0499 24.775 33.0667 21.8268 33.0629 18.7917C33.0629 16.0887 32.2614 13.4464 30.7597 11.1989C29.258 8.95141 27.1235 7.19972 24.6263 6.16532C22.129 5.13092 19.3811 4.86028 16.73 5.38761C14.079 5.91494 11.6438 7.21656 9.73249 9.12788C7.82118 11.0392 6.51955 13.4744 5.99222 16.1254C5.46489 18.7765 5.73554 21.5244 6.76993 24.0217C7.80433 26.5189 9.55602 28.6534 11.8035 30.1551C14.051 31.6568 16.6933 32.4583 19.3963 32.4583C22.4314 32.4621 25.3796 31.4453 27.7671 29.5713L33.5584 35.3796C33.7172 35.5397 33.9061 35.6668 34.1143 35.7535C34.3225 35.8403 34.5458 35.8849 34.7713 35.8849C34.9968 35.8849 35.2201 35.8403 35.4283 35.7535C35.6364 35.6668 35.8254 35.5397 35.9842 35.3796C36.1443 35.2208 36.2714 35.0318 36.3581 34.8237C36.4449 34.6155 36.4895 34.3922 36.4895 34.1667C36.4895 33.9412 36.4449 33.7179 36.3581 33.5097C36.2714 33.3015 36.1443 33.1126 35.9842 32.9538V32.9538ZM9.14629 18.7917C9.14629 16.7644 9.74744 14.7827 10.8737 13.0971C12 11.4115 13.6008 10.0977 15.4738 9.32191C17.3467 8.54611 19.4077 8.34313 21.396 8.73862C23.3843 9.13412 25.2106 10.1103 26.6441 11.5438C28.0776 12.9773 29.0538 14.8037 29.4493 16.792C29.8448 18.7803 29.6418 20.8412 28.866 22.7142C28.0902 24.5871 26.7765 26.188 25.0909 27.3142C23.4053 28.4405 21.4235 29.0417 19.3963 29.0417C16.6778 29.0417 14.0707 27.9618 12.1484 26.0395C10.2262 24.1173 9.14629 21.5101 9.14629 18.7917Z" fill="#9D9D9D"/>
</svg>
