<svg width="30" height="30" viewBox="0 0 30 30" fill="none" xmlns="http://www.w3.org/2000/svg">
<path d="M15 10.3125C13.7568 10.3125 12.5645 10.8063 11.6854 11.6854C10.8064 12.5645 10.3125 13.7568 10.3125 15C10.3125 16.2432 10.8064 17.4355 11.6854 18.3145C12.5645 19.1936 13.7568 19.6875 15 19.6875C16.2432 19.6875 17.4355 19.1936 18.3146 18.3145C19.1936 17.4355 19.6875 16.2432 19.6875 15C19.6875 13.7568 19.1936 12.5645 18.3146 11.6854C17.4355 10.8063 16.2432 10.3125 15 10.3125ZM11.875 15C11.875 14.1712 12.2042 13.3763 12.7903 12.7903C13.3764 12.2042 14.1712 11.875 15 11.875C15.8288 11.875 16.6237 12.2042 17.2097 12.7903C17.7958 13.3763 18.125 14.1712 18.125 15C18.125 15.8288 17.7958 16.6236 17.2097 17.2097C16.6237 17.7957 15.8288 18.125 15 18.125C14.1712 18.125 13.3764 17.7957 12.7903 17.2097C12.2042 16.6236 11.875 15.8288 11.875 15ZM12.1838 27.1675C13.1081 27.3881 14.0544 27.4994 15.0044 27.4994C15.9523 27.4984 16.8969 27.3864 17.8188 27.1656C18.0611 27.1073 18.2796 26.9756 18.4444 26.7886C18.6093 26.6016 18.7125 26.3684 18.74 26.1206L18.9513 24.2012C18.987 23.858 19.144 23.5388 19.3941 23.301C19.6442 23.0633 19.971 22.9226 20.3156 22.9044C20.545 22.8944 20.7731 22.9375 20.9831 23.0294L22.7375 23.7987C22.89 23.8673 23.0552 23.9033 23.2225 23.9044C23.3897 23.9055 23.5554 23.8716 23.7088 23.805C23.8631 23.7394 24.0013 23.6419 24.115 23.5187C25.405 22.1283 26.368 20.4672 26.9338 18.6569C27.0078 18.4167 27.0055 18.1595 26.9272 17.9207C26.8488 17.6819 26.6982 17.4733 26.4963 17.3237L24.9375 16.1737C24.7519 16.0389 24.6007 15.862 24.4966 15.6576C24.3924 15.4531 24.3381 15.2269 24.3381 14.9975C24.3381 14.768 24.3924 14.5418 24.4966 14.3374C24.6007 14.1329 24.7519 13.9561 24.9375 13.8212L26.4913 12.6737C26.6938 12.5239 26.8447 12.3148 26.9231 12.0754C27.0015 11.836 27.0034 11.5781 26.9288 11.3375C26.3629 9.5269 25.3986 7.86605 24.1069 6.47686C23.9357 6.29393 23.712 6.16863 23.4666 6.11825C23.2212 6.06788 22.9663 6.0949 22.7369 6.19561L20.9831 6.96811C20.8019 7.04999 20.6044 7.09311 20.4044 7.09311C20.0444 7.0924 19.6973 6.95883 19.4297 6.718C19.1621 6.47717 18.9929 6.14605 18.9544 5.78811L18.7419 3.87561C18.7147 3.6246 18.6097 3.38837 18.4416 3.19998C18.2735 3.01159 18.0507 2.88048 17.8044 2.82499C16.8871 2.62021 15.951 2.5115 15.0113 2.50061C14.0651 2.51153 13.1225 2.62045 12.1988 2.82561C11.9527 2.88079 11.7301 3.01148 11.562 3.19941C11.3939 3.38734 11.2888 3.6231 11.2613 3.87374L11.0488 5.78749C11.0087 6.14599 10.8378 6.47712 10.5688 6.71749C10.2942 6.9507 9.94822 7.08302 9.58813 7.09248C9.38953 7.09235 9.19311 7.05107 9.01126 6.97124L7.26126 6.19874C7.03113 6.09713 6.77505 6.06973 6.52864 6.12036C6.28222 6.17099 6.05769 6.29712 5.88626 6.48124C4.59629 7.87074 3.63323 9.53101 3.06751 11.3406C2.99277 11.5811 2.99474 11.8389 3.07314 12.0782C3.15153 12.3176 3.30247 12.5266 3.50501 12.6762L5.06001 13.8237C5.33779 14.029 5.5341 14.3259 5.61427 14.6619C5.69443 14.9979 5.6533 15.3514 5.49813 15.66C5.39495 15.8646 5.24508 16.0421 5.06063 16.1781L3.50438 17.3275C3.30202 17.477 3.15119 17.6858 3.0728 17.9249C2.99441 18.164 2.99234 18.4215 3.06688 18.6619C3.6316 20.4732 4.59475 22.1351 5.88563 23.5256C6.05617 23.7096 6.27986 23.8359 6.52555 23.8868C6.77124 23.9376 7.02668 23.9106 7.25626 23.8094L9.01751 23.0362C9.19938 22.9562 9.39563 22.915 9.59438 22.915H9.59938C9.95803 22.9155 10.304 23.0478 10.5714 23.2868C10.8387 23.5259 11.0089 23.8549 11.0494 24.2112L11.2606 26.1219C11.2881 26.37 11.3916 26.6036 11.5568 26.7907C11.722 26.9778 11.941 27.1094 12.1838 27.1675ZM17.2238 25.7019C15.7613 26.0144 14.2488 26.0144 12.7863 25.7019L12.5963 24.0381C12.5136 23.2999 12.1622 22.6178 11.6089 22.1222C11.0555 21.6265 10.3391 21.3518 9.59626 21.3506H9.59001C9.1757 21.3489 8.76563 21.4341 8.38626 21.6006L6.85751 22.2712C5.86581 21.1527 5.10914 19.8462 4.63251 18.4294L5.98563 17.4294C6.36695 17.1482 6.6769 16.7814 6.8905 16.3585C7.1041 15.9356 7.21538 15.4684 7.21538 14.9947C7.21538 14.5209 7.1041 14.0537 6.8905 13.6309C6.6769 13.208 6.36695 12.8412 5.98563 12.56L4.63313 11.56C5.11067 10.1447 5.8675 8.83979 6.85876 7.72249L8.37876 8.39249C8.75875 8.56101 9.16995 8.64768 9.58563 8.64686H9.59188C10.3365 8.64531 11.0545 8.36974 11.609 7.87269C12.1634 7.37564 12.5155 6.6919 12.5981 5.95186L12.7856 4.28936C13.5189 4.14243 14.2641 4.06376 15.0119 4.05436C15.7538 4.06374 16.4931 4.14186 17.2206 4.28874L17.4081 5.95061C17.4883 6.69061 17.8388 7.37498 18.3924 7.87253C18.946 8.37008 19.6638 8.64581 20.4081 8.64686C20.8279 8.65678 21.2443 8.56906 21.6244 8.39061L23.1431 7.72124C24.135 8.83845 24.8921 10.1437 25.3694 11.5594L24.0213 12.555C23.6372 12.8349 23.3248 13.2016 23.1093 13.6252C22.8939 14.0488 22.7816 14.5173 22.7816 14.9925C22.7816 15.4677 22.8939 15.9362 23.1093 16.3598C23.3248 16.7834 23.6372 17.1501 24.0213 17.43L25.3744 18.43C24.8966 19.845 24.14 21.1498 23.1494 22.2675L21.6244 21.5987C21.1902 21.4061 20.7167 21.3189 20.2424 21.3442C19.7681 21.3695 19.3065 21.5065 18.8953 21.7442C18.4841 21.9819 18.1349 22.3134 17.8762 22.7117C17.6176 23.1101 17.4567 23.5639 17.4069 24.0362L17.2238 25.7019Z" fill="#9D9D9D"/>
</svg>
