<svg width="29" height="28" viewBox="0 0 29 28" fill="none" xmlns="http://www.w3.org/2000/svg">
<path d="M20.7237 16.8C23.0895 16.8 24.9992 18.676 24.9992 21C24.9992 23.324 23.0895 25.2 20.7237 25.2C18.3579 25.2 16.4482 23.324 16.4482 21C16.4482 20.664 16.491 20.356 16.5765 20.034L10.3343 16.814C9.55043 17.668 8.4388 18.2 7.18465 18.2C4.81888 18.2 2.90916 16.324 2.90916 14C2.90916 11.676 4.81888 9.8 7.18465 9.8C8.4388 9.8 9.55043 10.346 10.3343 11.186L16.5765 7.966C16.491 7.644 16.4482 7.336 16.4482 7C16.4482 4.676 18.3579 2.8 20.7237 2.8C23.0895 2.8 24.9992 4.676 24.9992 7C24.9992 9.324 23.0895 11.2 20.7237 11.2C19.4696 11.2 18.3579 10.654 17.5741 9.814L11.3319 13.034C11.5045 13.6668 11.5045 14.3332 11.3319 14.966L17.5741 18.186C18.3579 17.332 19.4696 16.8 20.7237 16.8Z" fill="#7B7B7B"/>
</svg>
